<?xml version="1.0" encoding="utf-8"?>
<!-- Generator: Adobe Illustrator 26.5.0, SVG Export Plug-In . SVG Version: 6.00 Build 0)  -->
<svg version="1.1" id="Layer_1" xmlns="http://www.w3.org/2000/svg" xmlns:xlink="http://www.w3.org/1999/xlink" x="0px" y="0px"
	 viewBox="0 0 747.8 284.6" style="enable-background:new 0 0 747.8 284.6;" xml:space="preserve">
<style type="text/css">
	.st0{fill:#FFFFFF;}
	.st1{fill:url(#SVGID_1_);}
	.st2{fill:#00FFA3;}
</style>
<g>
	<g>
		<path class="st0" d="M255.7,185.2h-8V89.5h41c20,0,33.9,12.1,33.9,29.6c0,14.2-9.9,25.2-24.7,27.9l24.7,38.3H313L289.6,148
			l-33.9,0.1L255.7,185.2L255.7,185.2z M255.7,96.8v44h32.6c15.5,0,26.3-8.9,26.3-21.8c0-13.6-10.8-22.2-26.3-22.2H255.7z"/>
		<path class="st0" d="M370.5,114c20.8,0,35.7,15.4,35.7,36.6v2.9h-64.7c1.1,16.1,12.9,27.5,28.9,27.5c11.7,0,22.9-7.4,26.4-17.4
			l7.4,1.2c-4.4,13.3-18.4,23.2-33.5,23.2c-21.4,0-36.8-15.7-36.8-37.3C333.8,129.4,349.2,114,370.5,114z M398.4,146.7
			c-1.5-15.1-12.9-25.6-28.2-25.6c-15.5,0-27.1,10.5-28.6,25.6H398.4z"/>
		<path class="st0" d="M429.4,85.4v49.9v49.9h-3.7H422v-49.9V85.4h3.7H429.4z"/>
		<path class="st0" d="M481.8,114c20.8,0,35.7,15.4,35.7,36.6v2.9h-64.7c1.1,16.1,12.9,27.5,28.9,27.5c11.7,0,22.9-7.4,26.4-17.4
			l7.4,1.2c-4.4,13.3-18.4,23.2-33.5,23.2c-21.4,0-36.8-15.7-36.8-37.3C445.2,129.4,460.6,114,481.8,114z M509.8,146.7
			c-1.5-15.1-12.9-25.6-28.2-25.6c-15.5,0-27.1,10.5-28.6,25.6H509.8z"/>
		<path class="st0" d="M594.2,116.7h7.5v68.5h-7.5v-14.7c-5.3,10.6-16.1,17.4-29.3,17.4c-20.6,0-35.4-15.5-35.4-36.9
			c0-21.5,14.8-37.1,35.4-37.1c13.2,0,24,6.8,29.3,17.6V116.7z M594.2,151c0-17.3-12.4-30-28.6-30c-16.6,0-28.6,12.5-28.6,30
			c0,17.3,12,30,28.6,30C581.8,181,594.2,168.3,594.2,151z"/>
		<path class="st0" d="M658.4,187.9c-13.1,0-23.7-6.7-29-17.2v45.8h-7.6v-99.8h7.4v14.7c5.4-10.6,16.1-17.4,29.3-17.4
			c20.4,0,35.4,15.7,35.4,37.1C693.8,172.4,678.9,187.9,658.4,187.9z M686.3,151c0-17.3-12.1-29.7-28.6-29.7
			c-16.6,0-28.6,12.5-28.6,29.7s12,29.6,28.6,29.6S686.3,168.2,686.3,151z"/>
	</g>
</g>
<g>
	
		<linearGradient id="SVGID_1_" gradientUnits="userSpaceOnUse" x1="6625.9165" y1="-2768.8235" x2="6525.9536" y2="-2691.0742" gradientTransform="matrix(-1 0.5774 0 1 6721.2554 -914.5238)">
		<stop  offset="0" style="stop-color:#03E1FF"/>
		<stop  offset="1" style="stop-color:#DC1FFF"/>
	</linearGradient>
	<polygon class="st1" points="106.3,222.2 106.3,134.9 193.6,84.6 193.6,171.8 	"/>
	<polygon class="st2" points="141.2,62.5 141.2,88.6 80.2,123.9 80.2,184.9 54,200 54,112.8 	"/>
</g>
</svg>
